<mxfile host="app.diagrams.net" modified="2022-12-19T02:35:23.705Z" agent="5.0 (Macintosh; Intel Mac OS X 10_15_7) AppleWebKit/537.36 (KHTML, like Gecko) Chrome/108.0.0.0 Safari/537.36" version="20.7.4" etag="SNuMfdXVkPShXg1uxHoP" type="github">
  <diagram id="ZeHIA6_hOOrNGY4K4dHA" name="Page-1">
    <mxGraphModel dx="885" dy="487" grid="1" gridSize="10" guides="1" tooltips="1" connect="1" arrows="1" fold="1" page="1" pageScale="1" pageWidth="827" pageHeight="1169" math="0" shadow="0">
      <root>
        <mxCell id="0" />
        <mxCell id="1" parent="0" />
        <mxCell id="iRdBceCxpHMuzvpEcNTg-3" style="edgeStyle=orthogonalEdgeStyle;rounded=0;orthogonalLoop=1;jettySize=auto;html=1;exitX=0.25;exitY=1;exitDx=0;exitDy=0;entryX=0.5;entryY=0;entryDx=0;entryDy=0;" edge="1" parent="1" source="iRdBceCxpHMuzvpEcNTg-1" target="iRdBceCxpHMuzvpEcNTg-2">
          <mxGeometry relative="1" as="geometry" />
        </mxCell>
        <mxCell id="iRdBceCxpHMuzvpEcNTg-9" style="edgeStyle=orthogonalEdgeStyle;rounded=0;orthogonalLoop=1;jettySize=auto;html=1;exitX=0.75;exitY=1;exitDx=0;exitDy=0;entryX=0.5;entryY=0;entryDx=0;entryDy=0;" edge="1" parent="1" source="iRdBceCxpHMuzvpEcNTg-1" target="iRdBceCxpHMuzvpEcNTg-8">
          <mxGeometry relative="1" as="geometry" />
        </mxCell>
        <mxCell id="iRdBceCxpHMuzvpEcNTg-14" style="edgeStyle=orthogonalEdgeStyle;rounded=0;orthogonalLoop=1;jettySize=auto;html=1;exitX=0.5;exitY=1;exitDx=0;exitDy=0;entryX=0.5;entryY=0;entryDx=0;entryDy=0;fontSize=18;" edge="1" parent="1" source="iRdBceCxpHMuzvpEcNTg-1" target="iRdBceCxpHMuzvpEcNTg-13">
          <mxGeometry relative="1" as="geometry" />
        </mxCell>
        <mxCell id="iRdBceCxpHMuzvpEcNTg-1" value="Django&lt;br&gt;Application" style="shape=parallelogram;perimeter=parallelogramPerimeter;whiteSpace=wrap;html=1;fixedSize=1;fillColor=#dae8fc;strokeColor=#6c8ebf;" vertex="1" parent="1">
          <mxGeometry x="371" y="80" width="120" height="60" as="geometry" />
        </mxCell>
        <mxCell id="iRdBceCxpHMuzvpEcNTg-5" style="edgeStyle=orthogonalEdgeStyle;rounded=0;orthogonalLoop=1;jettySize=auto;html=1;exitX=0.25;exitY=1;exitDx=0;exitDy=0;entryX=0.5;entryY=0;entryDx=0;entryDy=0;" edge="1" parent="1" source="iRdBceCxpHMuzvpEcNTg-2">
          <mxGeometry relative="1" as="geometry">
            <mxPoint x="87" y="303" as="targetPoint" />
          </mxGeometry>
        </mxCell>
        <mxCell id="iRdBceCxpHMuzvpEcNTg-7" style="edgeStyle=orthogonalEdgeStyle;rounded=0;orthogonalLoop=1;jettySize=auto;html=1;exitX=0.5;exitY=1;exitDx=0;exitDy=0;entryX=0.5;entryY=0;entryDx=0;entryDy=0;" edge="1" parent="1" source="iRdBceCxpHMuzvpEcNTg-2" target="iRdBceCxpHMuzvpEcNTg-6">
          <mxGeometry relative="1" as="geometry" />
        </mxCell>
        <mxCell id="iRdBceCxpHMuzvpEcNTg-2" value="Models" style="rounded=0;whiteSpace=wrap;html=1;fillColor=#d5e8d4;strokeColor=#82b366;" vertex="1" parent="1">
          <mxGeometry x="77" y="183" width="120" height="60" as="geometry" />
        </mxCell>
        <mxCell id="iRdBceCxpHMuzvpEcNTg-4" value="Blogs" style="shape=process;whiteSpace=wrap;html=1;backgroundOutline=1;" vertex="1" parent="1">
          <mxGeometry x="27" y="302" width="120" height="60" as="geometry" />
        </mxCell>
        <mxCell id="iRdBceCxpHMuzvpEcNTg-6" value="Projects" style="shape=process;whiteSpace=wrap;html=1;backgroundOutline=1;" vertex="1" parent="1">
          <mxGeometry x="167" y="303" width="120" height="60" as="geometry" />
        </mxCell>
        <mxCell id="iRdBceCxpHMuzvpEcNTg-11" style="edgeStyle=orthogonalEdgeStyle;rounded=0;orthogonalLoop=1;jettySize=auto;html=1;exitX=0.25;exitY=1;exitDx=0;exitDy=0;entryX=0.5;entryY=0;entryDx=0;entryDy=0;" edge="1" parent="1" source="iRdBceCxpHMuzvpEcNTg-8" target="iRdBceCxpHMuzvpEcNTg-10">
          <mxGeometry relative="1" as="geometry" />
        </mxCell>
        <mxCell id="iRdBceCxpHMuzvpEcNTg-8" value="Functionality" style="rounded=0;whiteSpace=wrap;html=1;fillColor=#ffe6cc;strokeColor=#d79b00;" vertex="1" parent="1">
          <mxGeometry x="647" y="183" width="120" height="60" as="geometry" />
        </mxCell>
        <mxCell id="iRdBceCxpHMuzvpEcNTg-10" value="Editor" style="shape=process;whiteSpace=wrap;html=1;backgroundOutline=1;" vertex="1" parent="1">
          <mxGeometry x="577" y="293" width="120" height="60" as="geometry" />
        </mxCell>
        <mxCell id="iRdBceCxpHMuzvpEcNTg-12" value="&lt;p style=&quot;line-height: 100%;&quot;&gt;&lt;font size=&quot;1&quot; style=&quot;&quot;&gt;&lt;b style=&quot;&quot;&gt;&lt;u style=&quot;font-size: 18px;&quot;&gt;Content Management System (Django)&lt;/u&gt;&lt;/b&gt;&lt;/font&gt;&lt;/p&gt;" style="text;html=1;strokeColor=none;fillColor=none;align=center;verticalAlign=middle;whiteSpace=wrap;rounded=0;" vertex="1" parent="1">
          <mxGeometry x="250" y="10" width="390" height="70" as="geometry" />
        </mxCell>
        <mxCell id="iRdBceCxpHMuzvpEcNTg-16" style="edgeStyle=orthogonalEdgeStyle;rounded=0;orthogonalLoop=1;jettySize=auto;html=1;exitX=0.25;exitY=1;exitDx=0;exitDy=0;entryX=0.5;entryY=0;entryDx=0;entryDy=0;fontSize=12;" edge="1" parent="1" source="iRdBceCxpHMuzvpEcNTg-13" target="iRdBceCxpHMuzvpEcNTg-15">
          <mxGeometry relative="1" as="geometry" />
        </mxCell>
        <mxCell id="iRdBceCxpHMuzvpEcNTg-18" style="edgeStyle=orthogonalEdgeStyle;rounded=0;orthogonalLoop=1;jettySize=auto;html=1;exitX=0.75;exitY=1;exitDx=0;exitDy=0;entryX=0.425;entryY=-0.058;entryDx=0;entryDy=0;entryPerimeter=0;fontSize=12;" edge="1" parent="1" source="iRdBceCxpHMuzvpEcNTg-13" target="iRdBceCxpHMuzvpEcNTg-17">
          <mxGeometry relative="1" as="geometry" />
        </mxCell>
        <mxCell id="iRdBceCxpHMuzvpEcNTg-13" value="&lt;font style=&quot;font-size: 12px;&quot;&gt;APIs&lt;/font&gt;" style="rounded=0;whiteSpace=wrap;html=1;fontSize=18;fillColor=#e1d5e7;strokeColor=#9673a6;" vertex="1" parent="1">
          <mxGeometry x="371" y="320" width="120" height="60" as="geometry" />
        </mxCell>
        <mxCell id="iRdBceCxpHMuzvpEcNTg-15" value="CRUD&lt;br&gt;Blogs" style="shape=process;whiteSpace=wrap;html=1;backgroundOutline=1;fontSize=12;" vertex="1" parent="1">
          <mxGeometry x="260" y="450" width="120" height="60" as="geometry" />
        </mxCell>
        <mxCell id="iRdBceCxpHMuzvpEcNTg-17" value="CRUD&lt;br&gt;Projects" style="shape=process;whiteSpace=wrap;html=1;backgroundOutline=1;fontSize=12;" vertex="1" parent="1">
          <mxGeometry x="491" y="450" width="120" height="60" as="geometry" />
        </mxCell>
        <mxCell id="iRdBceCxpHMuzvpEcNTg-22" value="" style="endArrow=none;html=1;rounded=0;fontSize=12;" edge="1" parent="1">
          <mxGeometry width="50" height="50" relative="1" as="geometry">
            <mxPoint x="40" y="600" as="sourcePoint" />
            <mxPoint x="800" y="600" as="targetPoint" />
          </mxGeometry>
        </mxCell>
      </root>
    </mxGraphModel>
  </diagram>
</mxfile>
